<svg width="28" height="20" viewBox="0 0 28 20" fill="none" xmlns="http://www.w3.org/2000/svg">
<path d="M18.375 9.96875C18.375 11.1705 17.9141 12.3231 17.0936 13.1728C16.2731 14.0226 15.1603 14.5 14 14.5C12.8397 14.5 11.7269 14.0226 10.9064 13.1728C10.0859 12.3231 9.625 11.1705 9.625 9.96875C9.625 8.76699 10.0859 7.61445 10.9064 6.76467C11.7269 5.9149 12.8397 5.4375 14 5.4375C15.1603 5.4375 16.2731 5.9149 17.0936 6.76467C17.9141 7.61445 18.375 8.76699 18.375 9.96875Z" fill="white"/>
<path d="M0 9.96875C0 9.96875 5.25 0 14 0C22.75 0 28 9.96875 28 9.96875C28 9.96875 22.75 19.9375 14 19.9375C5.25 19.9375 0 9.96875 0 9.96875ZM14 16.3125C15.6245 16.3125 17.1824 15.6441 18.331 14.4545C19.4797 13.2648 20.125 11.6512 20.125 9.96875C20.125 8.28628 19.4797 6.67273 18.331 5.48304C17.1824 4.29336 15.6245 3.625 14 3.625C12.3755 3.625 10.8176 4.29336 9.66897 5.48304C8.52031 6.67273 7.875 8.28628 7.875 9.96875C7.875 11.6512 8.52031 13.2648 9.66897 14.4545C10.8176 15.6441 12.3755 16.3125 14 16.3125Z" fill="white"/>
</svg>
