<svg width="28" height="29" viewBox="0 0 28 29" fill="none" xmlns="http://www.w3.org/2000/svg">
<path d="M14.0001 10.875C13.0718 10.875 12.1816 11.2569 11.5252 11.9367C10.8688 12.6166 10.5001 13.5386 10.5001 14.5C10.5001 15.4614 10.8688 16.3834 11.5252 17.0633C12.1816 17.7431 13.0718 18.125 14.0001 18.125C14.9283 18.125 15.8186 17.7431 16.475 17.0633C17.1313 16.3834 17.5001 15.4614 17.5001 14.5C17.5001 13.5386 17.1313 12.6166 16.475 11.9367C15.8186 11.2569 14.9283 10.875 14.0001 10.875ZM14.0001 20.5417C12.453 20.5417 10.9693 19.9051 9.87529 18.7721C8.78133 17.6391 8.16675 16.1023 8.16675 14.5C8.16675 12.8977 8.78133 11.3609 9.87529 10.2279C10.9693 9.09486 12.453 8.45833 14.0001 8.45833C15.5472 8.45833 17.0309 9.09486 18.1249 10.2279C19.2188 11.3609 19.8334 12.8977 19.8334 14.5C19.8334 16.1023 19.2188 17.6391 18.1249 18.7721C17.0309 19.9051 15.5472 20.5417 14.0001 20.5417ZM14.0001 5.4375C8.16675 5.4375 3.18508 9.19542 1.16675 14.5C3.18508 19.8046 8.16675 23.5625 14.0001 23.5625C19.8334 23.5625 24.8151 19.8046 26.8334 14.5C24.8151 9.19542 19.8334 5.4375 14.0001 5.4375Z" fill="white"/>
</svg>
