<svg width="33" height="32" viewBox="0 0 33 32" fill="none" xmlns="http://www.w3.org/2000/svg">
<path d="M12.5786 28.08C11.5706 28.54 10.5935 29.1975 9.94122 29.635C9.73239 29.775 9.29153 30.0975 9.58286 30.3775C9.77364 30.5625 10.3769 30.42 10.6399 30.4525C10.627 31.2025 11.4133 31.1 11.9032 30.8375C12.1868 30.685 12.3879 30.535 12.6276 30.7825C12.9035 31.07 12.9499 31.195 13.4036 31.0775C13.762 30.9825 13.9863 30.705 14.2441 30.4675C14.8242 29.935 16.8222 27.975 14.9866 27.5975C14.2828 27.4525 13.4217 27.6975 12.5786 28.08ZM18.8718 28.885C17.887 29.335 16.9305 29.98 16.2911 30.4075C16.0875 30.5475 15.6543 30.86 15.9431 31.1325C16.1287 31.315 16.7217 31.175 16.9718 31.2075C16.964 31.9425 17.7323 31.84 18.2093 31.585C18.4903 31.435 18.6836 31.2875 18.9183 31.5325C19.1864 31.81 19.2328 31.9325 19.6788 31.8175C20.0294 31.7225 20.2486 31.4525 20.5012 31.22C21.0658 30.7 23.0252 28.7825 21.2257 28.4125C20.5373 28.27 19.6943 28.51 18.8718 28.885Z" fill="#FCC21B"/>
<path d="M9.84328 8.83497C9.30703 9.20497 8.62383 10.0975 8.50781 10.27C7.20071 12.2175 6.8011 14.1025 6.20297 16.2375C5.66672 18.1575 4.63805 19.88 3.30258 21.53C2.95969 21.9575 2.57555 22.65 2.96227 23.15C3.60164 23.98 5.68477 23.945 6.69281 23.79C11.6918 23.035 10.3409 18.8325 10.1759 15.9375C10.1114 14.73 10.0418 13.5225 9.98508 12.3125C9.9361 11.2425 10.5059 10.275 10.5059 9.19497C10.5059 8.56997 10.2094 8.57997 9.84328 8.83497Z" fill="#2E5772"/>
<path d="M26.0597 27.2125C26.4026 26.995 28.4934 26.25 27.8231 25.6375C27.5859 25.4175 26.9595 25.4725 26.6449 25.4275C26.0571 25.3425 25.3971 25.15 25.0284 24.6675C24.7371 24.285 24.6778 23.7825 24.6856 23.32C24.6907 23.04 24.6598 22.885 24.8841 22.7775C25.0516 22.7 25.41 22.74 25.5879 22.74C26.6784 22.745 27.8051 22.77 28.8441 22.3925C29.3339 22.215 30.1589 21.925 30.195 21.315C30.2363 20.5825 29.04 20.3425 28.5708 20.0025C22.3266 15.47 25.4487 5.8325 19.2921 1.3425C16.4459 -0.735004 11.8078 -0.0650041 9.87938 2.9125C9.26578 3.8575 8.81719 4.98 8.68828 6.0925C8.56453 7.1125 8.93578 8.0625 8.69344 9.0875C8.43047 10.2025 7.86586 11.2325 7.68539 12.365C6.95321 16.965 5.56875 24.7975 10.5909 27.75C11.5809 28.3325 12.4343 28.8625 13.6022 29.0825C17.7401 29.86 22.4581 29.5 26.0597 27.2125Z" fill="#2E5772"/>
<mask id="mask0_215_76" style="mask-type:luminance" maskUnits="userSpaceOnUse" x="6" y="0" width="25" height="30">
<path d="M26.0597 27.2125C26.4026 26.995 28.4934 26.25 27.8231 25.6375C27.5859 25.4175 26.9595 25.4725 26.6449 25.4275C26.0571 25.3425 25.3971 25.15 25.0284 24.6675C24.7371 24.285 24.6778 23.7825 24.6856 23.32C24.6907 23.04 24.6598 22.885 24.8841 22.7775C25.0516 22.7 25.41 22.74 25.5879 22.74C26.6784 22.745 27.8051 22.77 28.8441 22.3925C29.3339 22.215 30.1589 21.925 30.195 21.315C30.2363 20.5825 29.04 20.3425 28.5708 20.0025C22.3266 15.47 25.4487 5.8325 19.2921 1.3425C16.4459 -0.735004 11.8078 -0.0650041 9.87938 2.9125C9.26578 3.8575 8.81719 4.98 8.68828 6.0925C8.56453 7.1125 8.93578 8.0625 8.69344 9.0875C8.43047 10.2025 7.86586 11.2325 7.68539 12.365C6.95321 16.965 5.56875 24.7975 10.5909 27.75C11.5809 28.3325 12.4343 28.8625 13.6022 29.0825C17.7401 29.86 22.4581 29.5 26.0597 27.2125Z" fill="white"/>
</mask>
<g mask="url(#mask0_215_76)">
<path d="M15.8839 28.1125C15.2754 28.055 14.6618 27.97 14.0508 27.855C13.6796 27.785 13.3444 27.6675 13.0144 27.5275C12.5297 27.32 12.0682 27.0575 11.5707 26.765L11.4134 26.6725C10.065 25.88 9.2555 24.6375 8.79917 23.18C7.81175 20.035 8.46917 15.8875 8.92292 13.0425L8.97706 12.7125C9.06214 12.1725 9.25807 11.6475 9.45917 11.0925C9.58034 10.7675 9.69635 10.4275 9.79948 10.0825C9.8201 10.095 9.84073 10.105 9.86393 10.1175C10.676 10.5875 11.6583 10.8725 12.687 10.905C12.7617 10.9075 12.8417 10.91 12.9216 10.91C13.6332 10.91 14.948 10.815 15.8297 10.14C15.9406 10.05 16.0489 9.98997 16.1855 9.91247C16.5387 9.70747 16.8017 9.51497 17.0131 9.30247C17.3199 8.99247 17.6138 8.67997 17.9077 8.35247C18.2119 8.00747 18.3511 7.49247 18.4723 7.03747L18.5832 6.62997C18.7017 6.17497 18.8178 5.74247 19.2406 5.48747C19.4004 5.38997 19.5603 5.34247 19.7175 5.34247C20.2306 5.34247 20.6585 5.85247 21.0195 6.27997C21.3057 6.61747 21.3882 6.96747 21.4346 7.45997C21.4861 7.98997 21.5145 8.46747 21.3546 8.95497C21.0272 9.93997 20.1403 10.4375 19.4546 10.6775C19.3437 10.7175 19.2174 10.7475 19.091 10.7775C18.7585 10.8575 18.413 10.9425 18.2712 11.2C18.1861 11.36 18.1887 11.56 18.2841 11.8125C18.3408 11.96 18.4414 12.0875 18.5367 12.21L18.6373 12.3425C18.7817 12.545 18.8771 12.7725 18.9724 13.01L19.0008 13.08C19.7588 14.9075 20.2254 16.705 20.3878 18.425C20.4317 18.89 20.4807 19.2325 20.5503 19.57C20.6018 19.8125 20.6714 20.05 20.741 20.2875C20.79 20.45 20.839 20.6125 20.8803 20.7775C21.0143 21.305 21.2051 21.8025 21.3882 22.285C21.4707 22.4925 21.548 22.7025 21.6253 22.915C22.1094 24.2554 22.9605 25.4429 24.0874 26.35C24.2138 26.4525 24.3582 26.565 24.5103 26.675C23.4687 27.2125 22.3085 27.6075 21.0607 27.8625C20.5451 27.9675 20.014 28.045 19.47 28.1C18.8848 28.1575 18.2892 28.195 17.6782 28.195C17.0853 28.1975 16.4846 28.1675 15.8839 28.1125Z" fill="white"/>
</g>
<path d="M15.773 4.74498C15.773 5.40748 15.3141 5.94748 14.7443 5.94748C14.1823 5.94748 13.7182 5.40748 13.7182 4.74498C13.7182 4.07998 14.1823 3.54248 14.7443 3.54248C15.3141 3.54248 15.773 4.07998 15.773 4.74498Z" fill="white"/>
<path d="M9.17041 4.11751C8.84814 4.22001 8.53361 4.47251 8.25517 4.61751C7.64158 4.93751 6.99705 5.20501 6.40923 5.57001C5.98642 5.83001 5.58681 6.15001 5.31353 6.56751C5.03509 7.00001 4.85205 7.56001 5.58681 7.53251C5.82658 7.52501 6.05603 7.44751 6.29064 7.39501C6.67736 7.31001 7.04603 7.25501 7.44048 7.21251C7.87619 7.16501 8.34799 7.21501 8.78627 7.21501C9.30189 7.21501 10.1888 7.27001 10.4724 6.73251C10.7482 6.21501 10.5265 5.44751 10.3306 4.94751C10.2274 4.68001 10.0985 4.37501 9.85103 4.20251C9.62158 4.04501 9.3947 4.04501 9.17041 4.11751Z" fill="#FCC21B"/>
</svg>
