<svg width="207" height="238" viewBox="0 0 207 238" fill="none" xmlns="http://www.w3.org/2000/svg">
<path d="M158.266 7.22845C150.123 7.22845 142.728 9.66215 137.315 13.6673C131.902 17.6723 128.448 23.317 128.448 29.5999C128.448 35.883 131.902 41.5274 137.315 45.5325C138.126 46.1326 138.982 46.6959 139.878 47.2226L138.271 59.3981L149.772 51.0509C152.467 51.6486 155.316 51.9713 158.266 51.9713C166.409 51.9713 173.8 49.5376 179.213 45.5322C184.626 41.5276 188.08 35.8833 188.08 29.5999C188.08 23.317 184.626 17.6726 179.213 13.6673C173.8 9.6624 166.409 7.22845 158.266 7.22845ZM145.932 34.8408C147.543 34.8408 148.852 36.1453 148.852 37.7566C148.852 39.3677 147.543 40.6765 145.932 40.6765C144.321 40.6765 143.015 39.3677 143.015 37.7566C143.015 36.1456 144.321 34.8408 145.932 34.8408ZM158.226 34.8408C159.837 34.8408 161.142 36.1453 161.142 37.7566C161.142 39.3677 159.837 40.6765 158.226 40.6765C156.615 40.6765 155.306 39.3677 155.306 37.7566C155.306 36.1456 156.615 34.8408 158.226 34.8408ZM170.902 34.8408C172.513 34.8408 173.818 36.1453 173.818 37.7566C173.818 39.3677 172.513 40.6765 170.902 40.6765C169.29 40.6765 167.982 39.3677 167.982 37.7566C167.982 36.1456 169.291 34.8408 170.902 34.8408Z" fill="#2E5772"/>
<path d="M76.347 214.235C70.2286 217.024 64.298 221.01 60.339 223.662C59.0715 224.511 56.3957 226.466 58.1639 228.164C59.3219 229.285 62.9835 228.421 64.5796 228.618C64.5014 233.165 69.2741 232.544 72.2472 230.952C73.9685 230.028 75.189 229.118 76.6443 230.619C78.3187 232.362 78.6003 233.12 81.3544 232.407C83.5295 231.831 84.8909 230.149 86.4557 228.709C89.9765 225.481 102.104 213.598 90.9623 211.31C86.6904 210.431 81.4639 211.916 76.347 214.235ZM114.544 219.115C108.566 221.843 102.761 225.754 98.8803 228.345C97.6441 229.194 95.0152 231.089 96.7678 232.741C97.8944 233.847 101.493 232.998 103.011 233.195C102.964 237.651 107.628 237.03 110.522 235.484C112.228 234.575 113.402 233.68 114.826 235.166C116.453 236.848 116.735 237.591 119.442 236.894C121.57 236.318 122.9 234.681 124.434 233.271C127.861 230.119 139.753 218.494 128.831 216.251C124.653 215.387 119.536 216.842 114.544 219.115Z" fill="#FCC21B"/>
<path d="M59.7444 97.5622C56.4896 99.8053 52.3429 105.216 51.6387 106.262C43.7052 118.069 41.2797 129.496 37.6493 142.44C34.3945 154.08 28.1509 164.522 20.0452 174.526C17.964 177.117 15.6325 181.316 17.9797 184.347C21.8604 189.379 34.5041 189.167 40.6225 188.227C70.9641 183.65 62.7645 158.172 61.7631 140.621C61.3718 133.301 60.9493 125.98 60.6051 118.644C60.3078 112.158 63.766 106.292 63.766 99.7447C63.766 95.9556 61.9665 96.0162 59.7444 97.5622Z" fill="#2E5772"/>
<path d="M158.171 208.976C160.252 207.657 172.943 203.141 168.874 199.427C167.435 198.094 163.632 198.427 161.723 198.154C158.155 197.639 154.149 196.472 151.912 193.547C150.143 191.228 149.784 188.181 149.83 185.377C149.862 183.68 149.674 182.74 151.035 182.089C152.053 181.619 154.228 181.861 155.307 181.861C161.926 181.892 168.765 182.043 175.071 179.755C178.044 178.678 183.051 176.92 183.27 173.222C183.521 168.781 176.26 167.326 173.412 165.265C135.512 137.787 154.462 79.3595 117.095 52.1389C99.8192 39.5441 71.6683 43.6059 59.9635 61.657C56.2393 67.3861 53.5165 74.1912 52.7341 80.9358C51.983 87.1195 54.2363 92.8789 52.7654 99.093C51.1693 105.853 47.7423 112.097 46.647 118.963C42.2029 146.85 33.7999 194.335 64.2824 212.234C70.2913 215.766 75.4708 218.979 82.5593 220.313C107.675 225.026 136.311 222.844 158.171 208.976Z" fill="#2E5772"/>
<mask id="mask0_235_11" style="mask-type:luminance" maskUnits="userSpaceOnUse" x="42" y="44" width="142" height="179">
<path d="M158.171 208.976C160.252 207.657 172.943 203.141 168.874 199.427C167.435 198.094 163.632 198.427 161.723 198.154C158.155 197.639 154.149 196.472 151.912 193.547C150.143 191.228 149.784 188.181 149.83 185.377C149.862 183.68 149.674 182.74 151.035 182.089C152.053 181.619 154.228 181.861 155.307 181.861C161.926 181.892 168.765 182.043 175.071 179.755C178.044 178.678 183.051 176.92 183.27 173.222C183.521 168.781 176.26 167.326 173.412 165.265C135.512 137.787 154.462 79.3595 117.095 52.1389C99.8192 39.5441 71.6683 43.6059 59.9635 61.657C56.2393 67.3861 53.5165 74.1912 52.7341 80.9358C51.983 87.1195 54.2363 92.8789 52.7654 99.093C51.1693 105.853 47.7423 112.097 46.647 118.963C42.2029 146.85 33.7999 194.335 64.2824 212.234C70.2913 215.766 75.4708 218.979 82.5593 220.313C107.675 225.026 136.311 222.844 158.171 208.976Z" fill="white"/>
</mask>
<g mask="url(#mask0_235_11)">
<path d="M96.4079 214.432C92.715 214.083 88.9907 213.568 85.2821 212.871C83.0288 212.447 80.9946 211.734 78.9916 210.885C76.0498 209.628 73.2488 208.036 70.2287 206.263L69.2741 205.702C61.0902 200.898 56.1767 193.365 53.407 184.529C47.4138 165.462 51.404 140.318 54.1581 123.07L54.4867 121.07C55.0031 117.796 56.1923 114.613 57.4129 111.248C58.1483 109.278 58.8525 107.217 59.4784 105.125C59.6036 105.201 59.7288 105.262 59.8696 105.337C64.7988 108.187 70.7607 109.915 77.0043 110.112C77.4581 110.127 77.9432 110.142 78.4283 110.142C82.7471 110.142 90.7277 109.566 96.0793 105.474C96.7522 104.928 97.4094 104.564 98.2387 104.095C100.383 102.852 101.979 101.685 103.262 100.396C105.124 98.517 106.908 96.6225 108.692 94.637C110.538 92.5455 111.383 89.4233 112.119 86.6649L112.791 84.1944C113.511 81.4359 114.215 78.8139 116.782 77.268C117.752 76.6769 118.722 76.3889 119.677 76.3889C122.791 76.3889 125.388 79.4808 127.579 82.0725C129.316 84.1186 129.817 86.2405 130.098 89.2263C130.411 92.4394 130.583 95.3342 129.613 98.2897C127.626 104.261 122.243 107.277 118.081 108.732C117.408 108.975 116.641 109.157 115.874 109.339C113.856 109.824 111.759 110.339 110.898 111.9C110.382 112.87 110.397 114.083 110.976 115.613C111.321 116.508 111.931 117.28 112.51 118.023L113.12 118.826C113.996 120.054 114.575 121.433 115.154 122.873L115.326 123.298C119.927 134.377 122.759 145.274 123.745 155.702C124.011 158.521 124.308 160.597 124.731 162.643C125.044 164.113 125.466 165.553 125.889 166.993C126.186 167.978 126.484 168.963 126.734 169.964C127.548 173.162 128.706 176.178 129.817 179.103C130.317 180.361 130.787 181.634 131.256 182.922C134.194 191.049 139.36 198.247 146.2 203.747C146.967 204.368 147.843 205.05 148.766 205.717C142.445 208.976 135.403 211.37 127.829 212.916C124.7 213.553 121.476 214.023 118.174 214.356C114.622 214.705 111.008 214.932 107.299 214.932C103.7 214.947 100.054 214.765 96.4079 214.432Z" fill="white"/>
</g>
<path d="M95.735 72.7665C95.735 76.7829 92.9496 80.0567 89.4914 80.0567C86.0801 80.0567 83.2634 76.7829 83.2634 72.7665C83.2634 68.735 86.0801 65.4764 89.4914 65.4764C92.9496 65.4764 95.735 68.735 95.735 72.7665Z" fill="white"/>
<path d="M55.6602 68.9623C53.7042 69.5838 51.7952 71.1145 50.1052 71.9936C46.3809 73.9336 42.4689 75.5553 38.9011 77.7681C36.3349 79.3444 33.9094 81.2844 32.2507 83.8155C30.5607 86.4375 29.4497 89.8325 33.9094 89.6658C35.3647 89.6203 36.7574 89.1505 38.1813 88.8322C40.5285 88.3169 42.7662 87.9834 45.1604 87.7258C47.8049 87.4378 50.6685 87.7409 53.3287 87.7409C56.4583 87.7409 61.8412 88.0744 63.5625 84.8158C65.2369 81.6784 63.8911 77.0255 62.7019 73.9942C62.076 72.3725 61.2936 70.5234 59.7913 69.4777C58.3987 68.5228 57.0216 68.5228 55.6602 68.9623Z" fill="#FCC21B"/>
</svg>
